name ./resultDataOpenSim/trcMotMarkerGrf/sub09/grf-02-07.mot
datacolumns 19
datarows 25
range 0.48400000 0.58000000
endheader

                time	     ground_force_vx	     ground_force_vy	     ground_force_vz	     ground_force_px	     ground_force_py	     ground_force_pz	   l_ground_force_vx	   l_ground_force_vy	   l_ground_force_vz	   l_ground_force_px	   l_ground_force_py	   l_ground_force_pz	     ground_torque_x	     ground_torque_y	     ground_torque_z	   l_ground_torque_x	   l_ground_torque_y	   l_ground_torque_z	
          0.48400000	         36.04249456	        421.59466074	        -17.53579007	         -0.69922988	          0.00000000	          0.08378964	          0.00000000	          0.00000000	          0.00000000	          0.00000000	          0.00000000	          0.00000000	          0.00000000	          5.76548282	          0.00000000	          0.00000000	          0.00000000	          0.00000000	
          0.48800000	         40.89362808	        431.67144545	        -17.35501445	         -0.69834253	          0.00000000	          0.08431994	          0.00000000	          0.00000000	          0.00000000	          0.00000000	          0.00000000	          0.00000000	          0.00000000	          5.97957564	          0.00000000	          0.00000000	          0.00000000	          0.00000000	
          0.49200000	         45.70463060	        442.64450969	        -17.17702296	         -0.69744638	          0.00000000	          0.08487184	          0.00000000	          0.00000000	          0.00000000	          0.00000000	          0.00000000	          0.00000000	          0.00000000	          6.19168608	          0.00000000	          0.00000000	          0.00000000	          0.00000000	
          0.49600000	         50.23858383	        454.48408005	        -17.28331511	         -0.69647779	          0.00000000	          0.08544836	          0.00000000	          0.00000000	          0.00000000	          0.00000000	          0.00000000	          0.00000000	          0.00000000	          6.36703427	          0.00000000	          0.00000000	          0.00000000	          0.00000000	
          0.50000000	         54.32236446	        467.14545859	        -17.94707781	         -0.69538193	          0.00000000	          0.08604748	          0.00000000	          0.00000000	          0.00000000	          0.00000000	          0.00000000	          0.00000000	          0.00000000	          6.46805048	          0.00000000	          0.00000000	          0.00000000	          0.00000000	
          0.50400000	         57.87895294	        480.61172750	        -19.33680298	         -0.69415210	          0.00000000	          0.08664064	          0.00000000	          0.00000000	          0.00000000	          0.00000000	          0.00000000	          0.00000000	          0.00000000	          6.46521719	          0.00000000	          0.00000000	          0.00000000	          0.00000000	
          0.50800000	         60.92971728	        494.89005068	        -21.44151561	         -0.69283100	          0.00000000	          0.08717463	          0.00000000	          0.00000000	          0.00000000	          0.00000000	          0.00000000	          0.00000000	          0.00000000	          6.34685966	          0.00000000	          0.00000000	          0.00000000	          0.00000000	
          0.51200000	         63.57445060	        509.97891987	        -24.06444628	         -0.69146600	          0.00000000	          0.08759898	          0.00000000	          0.00000000	          0.00000000	          0.00000000	          0.00000000	          0.00000000	          0.00000000	          6.12506945	          0.00000000	          0.00000000	          0.00000000	          0.00000000	
          0.51600000	         65.96977988	        525.83922880	        -26.89244880	         -0.69010194	          0.00000000	          0.08787779	          0.00000000	          0.00000000	          0.00000000	          0.00000000	          0.00000000	          0.00000000	          0.00000000	          5.83606229	          0.00000000	          0.00000000	          0.00000000	          0.00000000	
          0.52000000	         68.31089564	        542.37740177	        -29.57721474	         -0.68877284	          0.00000000	          0.08800059	          0.00000000	          0.00000000	          0.00000000	          0.00000000	          0.00000000	          0.00000000	          0.00000000	          5.53469557	          0.00000000	          0.00000000	          0.00000000	          0.00000000	
          0.52400000	         70.80182198	        559.45039229	        -31.77497072	         -0.68750749	          0.00000000	          0.08797621	          0.00000000	          0.00000000	          0.00000000	          0.00000000	          0.00000000	          0.00000000	          0.00000000	          5.28411847	          0.00000000	          0.00000000	          0.00000000	          0.00000000	
          0.52800000	         73.61235119	        576.89747599	        -33.17496466	         -0.68631588	          0.00000000	          0.08781993	          0.00000000	          0.00000000	          0.00000000	          0.00000000	          0.00000000	          0.00000000	          0.00000000	          5.14256775	          0.00000000	          0.00000000	          0.00000000	          0.00000000	
          0.53200000	         76.84148857	        594.57501902	        -33.55683068	         -0.68520453	          0.00000000	          0.08754823	          0.00000000	          0.00000000	          0.00000000	          0.00000000	          0.00000000	          0.00000000	          0.00000000	          5.15016525	          0.00000000	          0.00000000	          0.00000000	          0.00000000	
          0.53600000	         80.50654639	        612.36578847	        -32.85299060	         -0.68418407	          0.00000000	          0.08718114	          0.00000000	          0.00000000	          0.00000000	          0.00000000	          0.00000000	          0.00000000	          0.00000000	          5.31892804	          0.00000000	          0.00000000	          0.00000000	          0.00000000	
          0.54000000	         84.55834955	        630.16544204	        -31.17662361	         -0.68325477	          0.00000000	          0.08674259	          0.00000000	          0.00000000	          0.00000000	          0.00000000	          0.00000000	          0.00000000	          0.00000000	          5.62864160	          0.00000000	          0.00000000	          0.00000000	          0.00000000	
          0.54400000	         88.91015527	        647.86408764	        -28.80944719	         -0.68240327	          0.00000000	          0.08625961	          0.00000000	          0.00000000	          0.00000000	          0.00000000	          0.00000000	          0.00000000	          0.00000000	          6.02974176	          0.00000000	          0.00000000	          0.00000000	          0.00000000	
          0.54800000	         93.47104719	        665.33035645	        -26.15904406	         -0.68161108	          0.00000000	          0.08576118	          0.00000000	          0.00000000	          0.00000000	          0.00000000	          0.00000000	          0.00000000	          0.00000000	          6.45246185	          0.00000000	          0.00000000	          0.00000000	          0.00000000	
          0.55200000	         98.17738985	        682.40715053	        -23.69241495	         -0.68085711	          0.00000000	          0.08527606	          0.00000000	          0.00000000	          0.00000000	          0.00000000	          0.00000000	          0.00000000	          0.00000000	          6.81998252	          0.00000000	          0.00000000	          0.00000000	          0.00000000	
          0.55600000	        103.01274591	        698.92683741	        -21.84988389	         -0.68011756	          0.00000000	          0.08483042	          0.00000000	          0.00000000	          0.00000000	          0.00000000	          0.00000000	          0.00000000	          0.00000000	          7.06266861	          0.00000000	          0.00000000	          0.00000000	          0.00000000	
          0.56000000	        108.00823897	        714.73721072	        -20.95075469	         -0.67937198	          0.00000000	          0.08444315	          0.00000000	          0.00000000	          0.00000000	          0.00000000	          0.00000000	          0.00000000	          0.00000000	          7.13065220	          0.00000000	          0.00000000	          0.00000000	          0.00000000	
          0.56400000	        113.22771924	        729.71890305	        -21.11926374	         -0.67861712	          0.00000000	          0.08412104	          0.00000000	          0.00000000	          0.00000000	          0.00000000	          0.00000000	          0.00000000	          0.00000000	          7.00262517	          0.00000000	          0.00000000	          0.00000000	          0.00000000	
          0.56800000	        118.74965135	        743.77675622	        -22.25921462	         -0.67787186	          0.00000000	          0.08385774	          0.00000000	          0.00000000	          0.00000000	          0.00000000	          0.00000000	          0.00000000	          0.00000000	          6.68942675	          0.00000000	          0.00000000	          0.00000000	          0.00000000	
          0.57200000	        124.64821271	        756.80974693	        -24.08150754	         -0.67716025	          0.00000000	          0.08363723	          0.00000000	          0.00000000	          0.00000000	          0.00000000	          0.00000000	          0.00000000	          0.00000000	          6.23180237	          0.00000000	          0.00000000	          0.00000000	          0.00000000	
          0.57600000	        130.97167701	        768.68353991	        -26.16962594	         -0.67649671	          0.00000000	          0.08344109	          0.00000000	          0.00000000	          0.00000000	          0.00000000	          0.00000000	          0.00000000	          0.00000000	          5.69263524	          0.00000000	          0.00000000	          0.00000000	          0.00000000	
          0.58000000	        137.72317469	        779.21995861	        -28.06573265	         -0.67588432	          0.00000000	          0.08325290	          0.00000000	          0.00000000	          0.00000000	          0.00000000	          0.00000000	          0.00000000	          0.00000000	          5.14498916	          0.00000000	          0.00000000	          0.00000000	          0.00000000	
